<svg width="40" height="40" viewBox="0 0 40 40" fill="none" xmlns="http://www.w3.org/2000/svg">
<path d="M0 20C0 8.9543 8.9543 0 20 0C31.0457 0 40 8.9543 40 20C40 31.0457 31.0457 40 20 40C8.9543 40 0 31.0457 0 20Z" fill="#4D1299"/>
<path fill-rule="evenodd" clip-rule="evenodd" d="M19.9997 8.33301C16.831 8.33301 16.4343 8.34623 15.1899 8.40301C13.9478 8.45979 13.0992 8.65734 12.3572 8.9459C11.5795 9.23834 10.874 9.69723 10.2907 10.2915C9.6974 10.8741 9.23823 11.5791 8.94512 12.3572C8.65812 13.0992 8.45979 13.9486 8.40301 15.1907C8.34701 16.4343 8.33301 16.8302 8.33301 19.9997C8.33301 23.1691 8.34623 23.565 8.40301 24.8095C8.45979 26.0516 8.65734 26.9001 8.9459 27.6421C9.23834 28.4199 9.69723 29.1253 10.2915 29.7087C10.8741 30.3019 11.5791 30.7611 12.3572 31.0542C13.0992 31.342 13.9478 31.5396 15.1899 31.5963C16.4343 31.6531 16.831 31.6663 19.9997 31.6663C23.1683 31.6663 23.565 31.6531 24.8095 31.5963C26.0516 31.5396 26.9001 31.342 27.6421 31.0535C28.4199 30.761 29.1253 30.3021 29.7087 29.7079C30.3019 29.1252 30.7611 28.4203 31.0542 27.6421C31.342 26.9001 31.5396 26.0516 31.5963 24.8095C31.6531 23.565 31.6663 23.1683 31.6663 19.9997C31.6663 16.831 31.6531 16.4343 31.5963 15.1899C31.5396 13.9478 31.342 13.0992 31.0535 12.3572C30.7606 11.5787 30.3014 10.8735 29.7079 10.2907C29.1252 9.6974 28.4203 9.23823 27.6421 8.94512C26.9001 8.65812 26.0508 8.45979 24.8087 8.40301C23.565 8.34701 23.1691 8.33301 19.9997 8.33301ZM19.9997 10.4353C23.1147 10.4353 23.4841 10.447 24.7146 10.503C25.8517 10.5551 26.4692 10.7441 26.8807 10.9051C27.4251 11.1159 27.814 11.3695 28.2223 11.777C28.6307 12.1853 28.8835 12.5742 29.0942 13.1187C29.2545 13.5301 29.4442 14.1477 29.4963 15.2848C29.5523 16.5152 29.564 16.8847 29.564 19.9997C29.564 23.1147 29.5523 23.4841 29.4963 24.7146C29.4442 25.8517 29.2552 26.4692 29.0942 26.8807C28.9075 27.3874 28.6096 27.8459 28.2223 28.2223C27.846 28.6097 27.3875 28.9076 26.8807 29.0942C26.4692 29.2545 25.8517 29.4442 24.7146 29.4963C23.4841 29.5523 23.1155 29.564 19.9997 29.564C16.8839 29.564 16.5152 29.5523 15.2848 29.4963C14.1477 29.4442 13.5301 29.2552 13.1187 29.0942C12.6119 28.9075 12.1535 28.6096 11.777 28.2223C11.3898 27.8459 11.0919 27.3874 10.9051 26.8807C10.7449 26.4692 10.5551 25.8517 10.503 24.7146C10.447 23.4841 10.4353 23.1147 10.4353 19.9997C10.4353 16.8847 10.447 16.5152 10.503 15.2848C10.5551 14.1477 10.7441 13.5301 10.9051 13.1187C11.1159 12.5742 11.3695 12.1853 11.777 11.777C12.1534 11.3897 12.6119 11.0918 13.1187 10.9051C13.5301 10.7449 14.1477 10.5551 15.2848 10.503C16.5152 10.447 16.8847 10.4353 19.9997 10.4353Z" fill="#EBE7F3"/>
<path fill-rule="evenodd" clip-rule="evenodd" d="M19.9871 23.7584C19.4909 23.7584 18.9996 23.6591 18.5412 23.4662C18.0828 23.2733 17.6664 22.9905 17.3155 22.634C16.9647 22.2775 16.6864 21.8543 16.4965 21.3885C16.3067 20.9227 16.2089 20.4235 16.2089 19.9193C16.2089 19.4152 16.3067 18.916 16.4965 18.4502C16.6864 17.9844 16.9647 17.5612 17.3155 17.2047C17.6664 16.8482 18.0828 16.5654 18.5412 16.3725C18.9996 16.1795 19.4909 16.0802 19.9871 16.0802C20.9891 16.0802 21.9501 16.4847 22.6586 17.2047C23.3672 17.9247 23.7652 18.9011 23.7652 19.9193C23.7652 20.9375 23.3672 21.914 22.6586 22.634C21.9501 23.354 20.9891 23.7584 19.9871 23.7584ZM19.9871 14.0053C18.4435 14.0053 16.9631 14.6284 15.8717 15.7375C14.7802 16.8466 14.167 18.3509 14.167 19.9193C14.167 21.4878 14.7802 22.9921 15.8717 24.1012C16.9631 25.2103 18.4435 25.8333 19.9871 25.8333C21.5306 25.8333 23.011 25.2103 24.1025 24.1012C25.194 22.9921 25.8071 21.4878 25.8071 19.9193C25.8071 18.3509 25.194 16.8466 24.1025 15.7375C23.011 14.6284 21.5306 14.0053 19.9871 14.0053ZM27.5003 13.898C27.5003 14.2687 27.3554 14.6243 27.0974 14.8865C26.8394 15.1486 26.4894 15.2959 26.1246 15.2959C25.7597 15.2959 25.4098 15.1486 25.1518 14.8865C24.8938 14.6243 24.7488 14.2687 24.7488 13.898C24.7488 13.5272 24.8938 13.1716 25.1518 12.9095C25.4098 12.6473 25.7597 12.5 26.1246 12.5C26.4894 12.5 26.8394 12.6473 27.0974 12.9095C27.3554 13.1716 27.5003 13.5272 27.5003 13.898Z" fill="#EBE7F3"/>
</svg>
