<svg width="40" height="40" viewBox="0 0 40 40" fill="none" xmlns="http://www.w3.org/2000/svg">
<path d="M20 40C31.0457 40 40 31.0457 40 20C40 8.9543 31.0457 0 20 0C8.9543 0 0 8.9543 0 20C0 31.0457 8.9543 40 20 40Z" fill="#4D1299"/>
<path d="M12.3811 27.7012V31.9703L16.3728 29.7009C17.4855 30.0216 18.6683 30.1947 19.8938 30.1947C26.463 30.1947 31.7876 25.2258 31.7876 19.0973C31.7876 12.9684 26.463 8 19.8938 8C13.325 8 8 12.9684 8 19.0973C8 22.5678 9.7074 25.6665 12.3811 27.7012Z" fill="#EBE7F3"/>
<path d="M18.6233 16.0576L12.209 22.849L18.0465 19.6461L21.0965 22.849L27.4746 16.0576L21.7018 19.2044L18.6233 16.0576V16.0576Z" fill="#4D1299"/>
</svg>
