<svg width="40" height="40" viewBox="0 0 40 40" fill="none" xmlns="http://www.w3.org/2000/svg">
<path d="M20 40C31.0457 40 40 31.0457 40 20C40 8.9543 31.0457 0 20 0C8.9543 0 0 8.9543 0 20C0 31.0457 8.9543 40 20 40Z" fill="#EBE7F3"/>
<path fill-rule="evenodd" clip-rule="evenodd" d="M20.6596 31.1268H20.6546C18.6642 31.1261 16.7085 30.6267 14.9714 29.6792L8.66699 31.333L10.3542 25.1704C9.31344 23.3668 8.76581 21.3209 8.7667 19.2249C8.76931 12.6678 14.1043 7.33301 20.6594 7.33301C23.8409 7.33438 26.8268 8.5729 29.0722 10.8209C31.3175 13.0687 32.5534 16.0566 32.5521 19.2343C32.5495 25.7899 27.2166 31.1241 20.6596 31.1268ZM15.2635 27.5262L15.6245 27.7405C17.1421 28.6411 18.8818 29.1176 20.6556 29.1183H20.6596C26.1077 29.1183 30.5419 24.684 30.5441 19.2336C30.5451 16.5923 29.518 14.1089 27.6517 12.2405C25.7855 10.3721 23.3036 9.34262 20.6634 9.3417C15.2111 9.3417 10.7768 13.7756 10.7746 19.2256C10.7739 21.0933 11.2965 22.9123 12.2859 24.486L12.521 24.86L11.5224 28.5076L15.2635 27.5262ZM26.244 21.7947C26.4513 21.8949 26.5912 21.9625 26.651 22.0623C26.7252 22.1862 26.7252 22.7811 26.4777 23.4754C26.23 24.1695 25.0429 24.803 24.4719 24.8883C23.96 24.9648 23.3121 24.9968 22.6003 24.7705C22.1687 24.6336 21.6152 24.4508 20.9063 24.1446C18.1205 22.9417 16.2378 20.2417 15.882 19.7314C15.8571 19.6956 15.8397 19.6706 15.83 19.6576L15.8276 19.6544C15.6703 19.4446 14.6166 18.0387 14.6166 16.5837C14.6166 15.2149 15.289 14.4974 15.5984 14.1672C15.6197 14.1446 15.6392 14.1238 15.6566 14.1047C15.929 13.8072 16.2509 13.7328 16.449 13.7328C16.6471 13.7328 16.8454 13.7346 17.0186 13.7433C17.0399 13.7444 17.0621 13.7443 17.0851 13.7441C17.2583 13.7431 17.4742 13.7419 17.6871 14.2534C17.7691 14.4503 17.889 14.7422 18.0154 15.0501C18.2711 15.6726 18.5536 16.3603 18.6033 16.4598C18.6776 16.6086 18.7271 16.7821 18.6281 16.9805C18.6132 17.0102 18.5995 17.0383 18.5863 17.0651C18.5119 17.217 18.4572 17.3287 18.331 17.4762C18.2813 17.5341 18.23 17.5966 18.1787 17.6591C18.0764 17.7836 17.9742 17.9081 17.8852 17.9968C17.7364 18.145 17.5816 18.3057 17.7549 18.6032C17.9283 18.9007 18.5246 19.8738 19.408 20.6617C20.3576 21.5088 21.183 21.8667 21.6013 22.0482C21.683 22.0836 21.7492 22.1123 21.7977 22.1366C22.0948 22.2854 22.2681 22.2605 22.4415 22.0623C22.6148 21.864 23.1843 21.1946 23.3824 20.8971C23.5804 20.5997 23.7786 20.6493 24.0509 20.7484C24.3234 20.8476 25.7843 21.5664 26.0815 21.7152C26.1395 21.7442 26.1937 21.7704 26.244 21.7947Z" fill="#4D1299"/>
</svg>
