<svg width="43" height="42" viewBox="0 0 43 42" fill="none" xmlns="http://www.w3.org/2000/svg">
<path d="M0 21C0 9.40202 9.49242 0 21.2019 0C32.9114 0 42.4038 9.40202 42.4038 21C42.4038 32.598 32.9114 42 21.2019 42C9.49242 42 0 32.598 0 21Z" fill="white"/>
<path fill-rule="evenodd" clip-rule="evenodd" d="M21.2018 8.75C17.8427 8.75 17.4222 8.76388 16.1029 8.8235C14.7862 8.88312 13.8866 9.09055 13.1 9.39353C12.2755 9.7006 11.5277 10.1824 10.9093 10.8064C10.2804 11.4182 9.79361 12.1584 9.48288 12.9754C9.17863 13.7545 8.96838 14.6463 8.90819 15.9506C8.84883 17.2564 8.83398 17.6721 8.83398 21C8.83398 24.3279 8.848 24.7436 8.90819 26.0503C8.96838 27.3545 9.17781 28.2455 9.48371 29.0246C9.79372 29.8412 10.2802 30.5819 10.9101 31.1945C11.5278 31.8174 12.2751 32.2995 13.1 32.6073C13.8866 32.9094 14.7862 33.1169 16.1029 33.1765C17.4222 33.2361 17.8427 33.25 21.2018 33.25C24.5609 33.25 24.9814 33.2361 26.3006 33.1765C27.6174 33.1169 28.5169 32.9095 29.3035 32.6065C30.128 32.2994 30.8759 31.8176 31.4942 31.1936C32.1232 30.5818 32.6099 29.8416 32.9207 29.0246C33.2257 28.2455 33.4352 27.3545 33.4954 26.0503C33.5555 24.7436 33.5696 24.3271 33.5696 21C33.5696 17.6729 33.5555 17.2564 33.4954 15.9497C33.4352 14.6455 33.2257 13.7545 32.9198 12.9754C32.6093 12.158 32.1226 11.4175 31.4934 10.8055C30.8757 10.1826 30.1284 9.70048 29.3035 9.39272C28.5169 9.09137 27.6165 8.88312 26.2998 8.8235C24.9814 8.7647 24.5617 8.75 21.2018 8.75ZM21.2018 10.9575C24.504 10.9575 24.8956 10.9697 26.2 11.0285C27.4055 11.0832 28.0601 11.2817 28.4963 11.4507C29.0735 11.672 29.4857 11.9383 29.9186 12.3662C30.3515 12.795 30.6194 13.2033 30.8429 13.775C31.0127 14.207 31.2139 14.8554 31.2692 16.0494C31.3285 17.3413 31.3409 17.7292 31.3409 21C31.3409 24.2708 31.3285 24.6587 31.2692 25.9506C31.2139 27.1446 31.0136 27.793 30.8429 28.225C30.6449 28.7571 30.3291 29.2385 29.9186 29.6338C29.5196 30.0405 29.0336 30.3533 28.4963 30.5493C28.0601 30.7175 27.4055 30.9168 26.2 30.9715C24.8956 31.0303 24.5048 31.0426 21.2018 31.0426C17.8987 31.0426 17.5079 31.0303 16.2035 30.9715C14.9981 30.9168 14.3434 30.7183 13.9073 30.5493C13.37 30.3532 12.884 30.0404 12.485 29.6338C12.0745 29.2385 11.7587 28.7571 11.5607 28.225C11.3908 27.793 11.1896 27.1446 11.1344 25.9506C11.075 24.6587 11.0627 24.2708 11.0627 21C11.0627 17.7292 11.075 17.3413 11.1344 16.0494C11.1896 14.8554 11.39 14.207 11.5607 13.775C11.7841 13.2033 12.0529 12.795 12.485 12.3662C12.884 11.9595 13.37 11.6467 13.9073 11.4507C14.3434 11.2825 14.9981 11.0832 16.2035 11.0285C17.5079 10.9697 17.8996 10.9575 21.2018 10.9575Z" fill="#4D1299"/>
<path fill-rule="evenodd" clip-rule="evenodd" d="M21.1874 24.9464C20.6614 24.9464 20.1406 24.8421 19.6547 24.6395C19.1688 24.4369 18.7272 24.14 18.3553 23.7657C17.9834 23.3914 17.6884 22.947 17.4871 22.4579C17.2858 21.9689 17.1822 21.4447 17.1822 20.9153C17.1822 20.3859 17.2858 19.8618 17.4871 19.3727C17.6884 18.8836 17.9834 18.4392 18.3553 18.0649C18.7272 17.6906 19.1688 17.3937 19.6547 17.1911C20.1406 16.9885 20.6614 16.8842 21.1874 16.8842C22.2497 16.8842 23.2684 17.3089 24.0195 18.0649C24.7706 18.8209 25.1926 19.8462 25.1926 20.9153C25.1926 21.9844 24.7706 23.0097 24.0195 23.7657C23.2684 24.5217 22.2497 24.9464 21.1874 24.9464ZM21.1874 14.7056C19.5511 14.7056 17.9818 15.3598 16.8247 16.5244C15.6676 17.6889 15.0176 19.2684 15.0176 20.9153C15.0176 22.5622 15.6676 24.1417 16.8247 25.3062C17.9818 26.4708 19.5511 27.125 21.1874 27.125C22.8238 27.125 24.3931 26.4708 25.5502 25.3062C26.7072 24.1417 27.3573 22.5622 27.3573 20.9153C27.3573 19.2684 26.7072 17.6889 25.5502 16.5244C24.3931 15.3598 22.8238 14.7056 21.1874 14.7056ZM29.1522 14.5929C29.1522 14.9822 28.9985 15.3555 28.725 15.6308C28.4515 15.9061 28.0806 16.0607 27.6938 16.0607C27.307 16.0607 26.936 15.9061 26.6625 15.6308C26.389 15.3555 26.2353 14.9822 26.2353 14.5929C26.2353 14.2036 26.389 13.8302 26.6625 13.5549C26.936 13.2796 27.307 13.125 27.6938 13.125C28.0806 13.125 28.4515 13.2796 28.725 13.5549C28.9985 13.8302 29.1522 14.2036 29.1522 14.5929Z" fill="#4D1299"/>
</svg>
