<svg width="44" height="42" viewBox="0 0 44 42" fill="none" xmlns="http://www.w3.org/2000/svg">
<path d="M21.8081 42C33.6292 42 43.212 32.598 43.212 21C43.212 9.40202 33.6292 0 21.8081 0C9.98713 0 0.404297 9.40202 0.404297 21C0.404297 32.598 9.98713 42 21.8081 42Z" fill="white"/>
<path fill-rule="evenodd" clip-rule="evenodd" d="M22.514 32.6836H22.5088C20.3787 32.6829 18.2856 32.1586 16.4267 31.1637L9.67969 32.9002L11.4853 26.4294C10.3715 24.5357 9.78544 22.3875 9.78639 20.1867C9.78919 13.3017 15.4987 7.7002 22.5139 7.7002C25.9186 7.70164 29.1142 9.00208 31.5171 11.3624C33.9201 13.7227 35.2427 16.86 35.2414 20.1965C35.2385 27.0799 29.5313 32.6808 22.514 32.6836ZM16.7393 28.9031L17.1256 29.128C18.7497 30.0737 20.6115 30.574 22.5098 30.5747H22.514C28.3446 30.5747 33.0901 25.9187 33.0924 20.1958C33.0935 17.4225 31.9942 14.8149 29.997 12.8531C27.9998 10.8912 25.3437 9.81029 22.5182 9.80933C16.6831 9.80933 11.9376 14.4649 11.9353 20.1874C11.9345 22.1485 12.4937 24.0584 13.5527 25.7109L13.8042 26.1036L12.7355 29.9335L16.7393 28.9031ZM28.4905 22.885C28.7123 22.9902 28.862 23.0612 28.926 23.1659C29.0055 23.296 29.0055 23.9207 28.7406 24.6497C28.4755 25.3785 27.205 26.0437 26.594 26.1332C26.0461 26.2136 25.3528 26.2471 24.591 26.0096C24.1291 25.8658 23.5368 25.6738 22.778 25.3523C19.7967 24.0893 17.782 21.2543 17.4012 20.7185C17.3745 20.6809 17.3558 20.6547 17.3454 20.641L17.3429 20.6377C17.1746 20.4174 16.0469 18.9412 16.0469 17.4134C16.0469 15.9762 16.7665 15.2228 17.0977 14.8761C17.1204 14.8523 17.1412 14.8305 17.1599 14.8104C17.4514 14.4981 17.796 14.42 18.008 14.42C18.2199 14.42 18.4322 14.4219 18.6175 14.431C18.6403 14.4322 18.6641 14.432 18.6887 14.4319C18.874 14.4308 19.1051 14.4295 19.333 14.9666C19.4207 15.1734 19.549 15.4798 19.6843 15.8031C19.9579 16.4567 20.2603 17.1789 20.3135 17.2834C20.393 17.4396 20.446 17.6217 20.34 17.83C20.3241 17.8613 20.3094 17.8907 20.2953 17.9189C20.2157 18.0784 20.1571 18.1957 20.022 18.3505C19.9689 18.4114 19.9139 18.477 19.859 18.5426C19.7496 18.6733 19.6402 18.804 19.545 18.8972C19.3857 19.0527 19.22 19.2215 19.4055 19.5339C19.591 19.8463 20.2293 20.868 21.1747 21.6954C22.1909 22.5847 23.0742 22.9606 23.5219 23.1512C23.6093 23.1884 23.6801 23.2185 23.7321 23.244C24.05 23.4003 24.2355 23.3741 24.421 23.1659C24.6065 22.9577 25.216 22.2548 25.428 21.9425C25.6399 21.6303 25.852 21.6823 26.1435 21.7863C26.435 21.8906 27.9985 22.6453 28.3166 22.8015C28.3786 22.832 28.4367 22.8595 28.4905 22.885Z" fill="#4D1299"/>
</svg>
