<svg width="54" height="68" viewBox="0 0 54 68" fill="none" xmlns="http://www.w3.org/2000/svg">
<mask id="mask0_314_14058" style="mask-type:luminance" maskUnits="userSpaceOnUse" x="6" y="0" width="41" height="42">
<path d="M6.12012 0H46.2991V41.9162H6.12012V0Z" fill="white"/>
</mask>
<g mask="url(#mask0_314_14058)">
<path d="M41.752 37.5097V17.2336L26.2098 5.06499L10.6676 17.2336V37.5097H41.752ZM46.1921 39.7131C46.1921 39.8572 46.1787 40.0014 46.1505 40.1428C46.1211 40.2843 46.0795 40.4231 46.0232 40.5565C45.9683 40.69 45.8999 40.8168 45.8182 40.9369C45.7378 41.057 45.6453 41.1691 45.5421 41.2719C45.4389 41.3733 45.3277 41.4654 45.2057 41.5455C45.0851 41.6255 44.9564 41.6936 44.8224 41.7483C44.687 41.8044 44.549 41.8457 44.4056 41.8738C44.2622 41.9031 44.1175 41.9165 43.9727 41.9165H8.4469C8.30216 41.9165 8.15742 41.9031 8.01402 41.8738C7.87196 41.8457 7.73258 41.8044 7.59722 41.7483C7.4632 41.6936 7.33454 41.6255 7.21392 41.5455C7.0933 41.4654 6.98073 41.3733 6.87753 41.2719C6.77434 41.1691 6.68186 41.057 6.60145 40.9369C6.52104 40.8168 6.45135 40.69 6.3964 40.5565C6.34012 40.4231 6.29857 40.2843 6.27043 40.1428C6.24094 40.0014 6.22754 39.8572 6.22754 39.7131V16.1646C6.22754 15.8283 6.30125 15.508 6.44867 15.2037C6.59743 14.9008 6.80382 14.6445 7.07052 14.435L24.8334 0.528787C25.0291 0.375312 25.2449 0.256535 25.4807 0.175126C25.7166 0.0950521 25.9605 0.0536804 26.2098 0.0536804C26.4591 0.0536804 26.703 0.0950521 26.9389 0.175126C27.1748 0.256535 27.3905 0.375312 27.5862 0.528787L45.3491 14.4337C45.6158 14.6419 45.8235 14.8994 45.971 15.2024C46.1197 15.5067 46.1934 15.8283 46.1921 16.1646V39.7131ZM15.109 22.0848H19.5491C19.5491 22.301 19.5598 22.5172 19.5812 22.732C19.6027 22.9482 19.6348 23.1618 19.6764 23.374C19.7193 23.5862 19.7729 23.7957 19.8359 24.0025C19.8988 24.2107 19.9726 24.4136 20.0556 24.6138C20.1401 24.814 20.2326 25.0101 20.3357 25.201C20.4389 25.3918 20.5502 25.5773 20.6721 25.7575C20.7928 25.9363 20.9228 26.1112 21.0608 26.278C21.1988 26.4448 21.3463 26.6049 21.5004 26.7584C21.6545 26.9119 21.8153 27.0574 21.9842 27.1948C22.153 27.3323 22.3273 27.4604 22.5095 27.5805C22.6905 27.7006 22.8781 27.8127 23.0697 27.9142C23.2627 28.0169 23.4597 28.109 23.6608 28.1918C23.8618 28.2745 24.0682 28.3479 24.2759 28.4106C24.485 28.4733 24.6967 28.5254 24.9098 28.5681C25.1243 28.6108 25.34 28.6415 25.5571 28.6629C25.7743 28.6842 25.9914 28.6949 26.2098 28.6949C26.4283 28.6949 26.6454 28.6842 26.8625 28.6629C27.0796 28.6415 27.2954 28.6108 27.5098 28.5681C27.7229 28.5254 27.9346 28.4733 28.1437 28.4106C28.3528 28.3479 28.5578 28.2745 28.7589 28.1918C28.9599 28.109 29.1569 28.0169 29.3499 27.9142C29.5429 27.8127 29.7292 27.7006 29.9101 27.5805C30.0924 27.4604 30.2666 27.3323 30.4354 27.1948C30.6043 27.0574 30.7651 26.9119 30.9193 26.7584C31.0747 26.6049 31.2208 26.4448 31.3588 26.278C31.4969 26.1112 31.6269 25.9363 31.7488 25.7575C31.8694 25.5773 31.982 25.3918 32.0839 25.201C32.1871 25.0101 32.2809 24.814 32.364 24.6138C32.4471 24.4136 32.5208 24.2107 32.5838 24.0025C32.6468 23.7957 32.7004 23.5862 32.7433 23.374C32.7848 23.1618 32.817 22.9482 32.8384 22.732C32.8598 22.5172 32.8706 22.301 32.8706 22.0848H37.312C37.312 22.4451 37.2932 22.8054 37.2584 23.1644C37.2222 23.5234 37.1686 23.8798 37.0975 24.2334C37.0265 24.5871 36.9394 24.9367 36.8335 25.2824C36.7276 25.628 36.6057 25.967 36.4663 26.3007C36.3269 26.6343 36.1715 26.9599 35.9999 27.2776C35.8297 27.5965 35.6421 27.9048 35.4411 28.2051C35.2387 28.5054 35.0216 28.795 34.7911 29.0739C34.5606 29.3528 34.3166 29.6197 34.0593 29.8746C33.8033 30.1309 33.534 30.3724 33.2525 30.6007C32.9711 30.8302 32.6803 31.0451 32.3774 31.2452C32.0758 31.4454 31.7636 31.6309 31.4433 31.8018C31.123 31.9713 30.7946 32.1261 30.4582 32.2635C30.1218 32.401 29.7801 32.5224 29.433 32.6279C29.0845 32.732 28.7321 32.82 28.3756 32.8908C28.0191 32.9615 27.6599 33.0136 27.298 33.0496C26.9362 33.0843 26.573 33.1016 26.2098 33.1016C25.8466 33.1016 25.4834 33.0843 25.1216 33.0496C24.7597 33.0136 24.4006 32.9615 24.0441 32.8908C23.6876 32.82 23.3351 32.732 22.9866 32.6279C22.6395 32.5224 22.2978 32.401 21.9614 32.2635C21.625 32.1261 21.298 31.9713 20.9764 31.8018C20.6561 31.6309 20.3451 31.4454 20.0422 31.2452C19.7394 31.0451 19.4485 30.8302 19.1671 30.6007C18.8857 30.3724 18.6176 30.1309 18.3603 29.8746C18.103 29.6197 17.8591 29.3528 17.6286 29.0739C17.398 28.795 17.1809 28.5054 16.9799 28.2051C16.7775 27.9048 16.5912 27.5965 16.4197 27.2776C16.2482 26.9599 16.0927 26.6343 15.9533 26.3007C15.8139 25.967 15.692 25.628 15.5861 25.2824C15.4802 24.9367 15.3931 24.5871 15.3221 24.2334C15.2511 23.8798 15.1974 23.5234 15.1613 23.1644C15.1264 22.8054 15.109 22.4451 15.109 22.0848Z" fill="#4D1299"/>
</g>
<mask id="mask1_314_14058" style="mask-type:luminance" maskUnits="userSpaceOnUse" x="17" y="13" width="7" height="7">
<path d="M17.7861 13.9525H23.7647V19.8153H17.7861V13.9525Z" fill="white"/>
</mask>
<g mask="url(#mask1_314_14058)">
<mask id="mask2_314_14058" style="mask-type:luminance" maskUnits="userSpaceOnUse" x="17" y="13" width="7" height="7">
<path d="M20.7748 13.9525C19.1236 13.9525 17.7861 15.2884 17.7861 16.9366C17.7861 18.5848 19.1236 19.9207 20.7748 19.9207C22.4245 19.9207 23.7634 18.5848 23.7634 16.9366C23.7634 15.2884 22.4245 13.9525 20.7748 13.9525Z" fill="white"/>
</mask>
<g mask="url(#mask2_314_14058)">
<path d="M17.7861 13.9525H23.6468V19.7886H17.7861V13.9525Z" fill="#D854A5"/>
</g>
</g>
<path d="M3.68821 52.8695C2.9444 52.8695 2.29441 52.7121 1.73689 52.3944C1.17937 52.0741 0.750508 51.6177 0.450305 51.0225C0.150102 50.4246 0 49.7253 0 48.9245C0 48.1278 0.150102 47.4338 0.450305 46.8426C0.750508 46.2487 1.17937 45.791 1.73689 45.4707C2.29441 45.1504 2.9444 44.9902 3.68821 44.9902C4.17068 44.9902 4.62232 45.0623 5.04449 45.2038C5.46933 45.3466 5.84592 45.5508 6.17561 45.8177C6.2721 45.8924 6.33777 45.9711 6.37396 46.0526C6.4088 46.1313 6.42756 46.2274 6.42756 46.3408C6.42756 46.501 6.382 46.6371 6.29355 46.7465C6.20777 46.8533 6.1019 46.9067 5.97726 46.9067C5.82984 46.9067 5.67974 46.8573 5.52695 46.7572C5.21603 46.5223 4.92387 46.3608 4.65315 46.2714C4.38511 46.1793 4.08625 46.1326 3.7579 46.1326C2.99667 46.1326 2.42039 46.3702 2.03173 46.8426C1.64174 47.3164 1.44741 48.0104 1.44741 48.9245C1.44741 49.8507 1.64174 50.5501 2.03173 51.0225C2.42039 51.4923 2.99667 51.7271 3.7579 51.7271C4.06883 51.7271 4.35831 51.6818 4.62635 51.5883C4.89438 51.4923 5.19459 51.3321 5.52695 51.1079C5.60201 51.0625 5.67438 51.0252 5.74675 50.9958C5.8218 50.9678 5.89819 50.9531 5.97726 50.9531C6.1019 50.9531 6.20777 51.0091 6.29355 51.1186C6.382 51.2253 6.42756 51.3588 6.42756 51.519C6.42756 51.6297 6.4088 51.7271 6.37396 51.8126C6.33777 51.8953 6.2721 51.9714 6.17561 52.0421C5.84592 52.313 5.46933 52.5199 5.04449 52.6613C4.62232 52.8001 4.17068 52.8695 3.68821 52.8695Z" fill="#4D1299"/>
<path d="M11.0417 52.8695C10.2912 52.8695 9.63991 52.7121 9.09043 52.3944C8.53961 52.0741 8.11477 51.6177 7.81456 51.0225C7.51436 50.4246 7.36426 49.7253 7.36426 48.9245C7.36426 48.1278 7.51168 47.4338 7.8092 46.8426C8.10538 46.2487 8.53023 45.791 9.08507 45.4707C9.63857 45.1504 10.2912 44.9902 11.0417 44.9902C11.7949 44.9902 12.4476 45.1504 12.9984 45.4707C13.5479 45.791 13.9701 46.2487 14.2636 46.8426C14.5598 47.4338 14.7085 48.1278 14.7085 48.9245C14.7085 49.7253 14.5584 50.4246 14.2582 51.0225C13.9607 51.6177 13.5372 52.0741 12.9877 52.3944C12.4369 52.7121 11.7882 52.8695 11.0417 52.8695ZM11.0417 51.7485C11.7494 51.7485 12.3015 51.5056 12.6982 51.0172C13.0976 50.53 13.2986 49.8321 13.2986 48.9245C13.2986 48.017 13.0976 47.3217 12.6982 46.8373C12.3015 46.3542 11.7494 46.1113 11.0417 46.1113C10.3261 46.1113 9.77124 46.3542 9.37455 46.8373C8.97785 47.3217 8.7795 48.017 8.7795 48.9245C8.7795 49.8321 8.97785 50.53 9.37455 51.0172C9.77124 51.5056 10.3261 51.7485 11.0417 51.7485Z" fill="#4D1299"/>
<path d="M22.9273 45.0328C23.1337 45.0328 23.2985 45.0969 23.4205 45.225C23.5451 45.3531 23.6081 45.5226 23.6081 45.7322V52.1861C23.6081 52.389 23.5491 52.5491 23.4312 52.6666C23.3159 52.78 23.1645 52.8374 22.9755 52.8374C22.7852 52.8374 22.6351 52.78 22.5252 52.6666C22.414 52.5491 22.359 52.389 22.359 52.1861V47.6913L20.4988 51.2039C20.4131 51.364 20.3179 51.4841 20.2147 51.5616C20.1102 51.6363 19.9909 51.6737 19.8556 51.6737C19.7162 51.6737 19.5942 51.639 19.491 51.5669C19.3905 51.4922 19.2954 51.372 19.2069 51.2039L17.336 47.75V52.1861C17.336 52.3823 17.2784 52.5411 17.1644 52.6612C17.0532 52.7787 16.9031 52.8374 16.7141 52.8374C16.5238 52.8374 16.3737 52.78 16.2638 52.6666C16.1526 52.5491 16.0977 52.389 16.0977 52.1861V45.7322C16.0977 45.5226 16.158 45.3531 16.2799 45.225C16.4005 45.0969 16.564 45.0328 16.7678 45.0328C17.0492 45.0328 17.2717 45.1903 17.4325 45.5026L19.8663 50.1149L22.284 45.5026C22.4448 45.1903 22.6592 45.0328 22.9273 45.0328Z" fill="#4D1299"/>
<path d="M25.9269 52.8377C25.7151 52.8377 25.5463 52.7736 25.4176 52.6455C25.2889 52.5147 25.2246 52.3439 25.2246 52.133V45.7538C25.2246 45.5443 25.2849 45.3801 25.4069 45.2627C25.5275 45.1452 25.6937 45.0865 25.9054 45.0865H29.7491C30.1914 45.0865 30.4138 45.2774 30.4138 45.6577C30.4138 46.0287 30.1914 46.2129 29.7491 46.2129H26.6184V48.3055H29.5293C29.9716 48.3055 30.194 48.495 30.194 48.8714C30.194 49.2424 29.9716 49.4265 29.5293 49.4265H26.6184V52.133C26.6184 52.3439 26.5554 52.5147 26.4308 52.6455C26.3048 52.7736 26.1373 52.8377 25.9269 52.8377Z" fill="#4D1299"/>
<path d="M34.8005 52.8695C34.05 52.8695 33.3987 52.7121 32.8492 52.3944C32.2984 52.0741 31.8736 51.6177 31.5734 51.0225C31.2731 50.4246 31.123 49.7253 31.123 48.9245C31.123 48.1278 31.2705 47.4338 31.568 46.8426C31.8642 46.2487 32.289 45.791 32.8439 45.4707C33.3974 45.1504 34.05 44.9902 34.8005 44.9902C35.5537 44.9902 36.2064 45.1504 36.7572 45.4707C37.3067 45.791 37.7289 46.2487 38.0224 46.8426C38.3185 47.4338 38.4673 48.1278 38.4673 48.9245C38.4673 49.7253 38.3172 50.4246 38.017 51.0225C37.7195 51.6177 37.296 52.0741 36.7465 52.3944C36.1957 52.7121 35.547 52.8695 34.8005 52.8695ZM34.8005 51.7485C35.5082 51.7485 36.0603 51.5056 36.457 51.0172C36.8564 50.53 37.0574 49.8321 37.0574 48.9245C37.0574 48.017 36.8564 47.3217 36.457 46.8373C36.0603 46.3542 35.5082 46.1113 34.8005 46.1113C34.0849 46.1113 33.53 46.3542 33.1333 46.8373C32.7366 47.3217 32.5383 48.017 32.5383 48.9245C32.5383 49.8321 32.7366 50.53 33.1333 51.0172C33.53 51.5056 34.0849 51.7485 34.8005 51.7485Z" fill="#4D1299"/>
<path d="M46.0096 51.8928C46.0954 52.0209 46.1383 52.1477 46.1383 52.2718C46.1383 52.44 46.0699 52.5788 45.9345 52.6882C45.8019 52.795 45.6451 52.8484 45.4628 52.8484C45.3449 52.8484 45.2323 52.8217 45.1251 52.7683C45.0205 52.7149 44.9321 52.6335 44.857 52.5227L43.4043 50.3234C43.2568 50.0885 43.1014 49.9257 42.9379 49.8322C42.773 49.7362 42.5599 49.6881 42.2999 49.6881H41.2278V52.133C41.2278 52.3506 41.1648 52.5227 41.0402 52.6509C40.9142 52.775 40.7467 52.8377 40.5362 52.8377C40.3245 52.8377 40.1556 52.775 40.027 52.6509C39.8983 52.5227 39.834 52.3506 39.834 52.133V45.7538C39.834 45.5443 39.8943 45.3801 40.0163 45.2627C40.1369 45.1452 40.3031 45.0865 40.5148 45.0865H43.2488C44.1239 45.0865 44.79 45.2827 45.2484 45.6737C45.7054 46.0621 45.9345 46.6226 45.9345 47.3553C45.9345 47.9532 45.7643 48.443 45.4253 48.8233C45.0849 49.205 44.6051 49.4506 43.9832 49.56C44.1936 49.6107 44.3799 49.7015 44.5407 49.8322C44.7016 49.9604 44.8584 50.1419 45.0125 50.3768L46.0096 51.8928ZM43.0558 48.6098C43.5879 48.6098 43.9779 48.511 44.2245 48.3108C44.4711 48.112 44.5943 47.8037 44.5943 47.3873C44.5943 46.9683 44.4711 46.6613 44.2245 46.4691C43.9779 46.277 43.5879 46.1809 43.0558 46.1809H41.2117V48.6098H43.0558Z" fill="#4D1299"/>
<path d="M49.9169 52.827C49.6984 52.827 49.5255 52.7656 49.3969 52.6402C49.2682 52.5121 49.2039 52.3439 49.2039 52.133V46.2449H47.215C46.7755 46.2449 46.5557 46.0527 46.5557 45.6684C46.5557 45.2814 46.7755 45.0865 47.215 45.0865H52.608C53.0476 45.0865 53.2673 45.2814 53.2673 45.6684C53.2673 46.0527 53.0476 46.2449 52.608 46.2449H50.6191V52.133C50.6191 52.3439 50.5548 52.5121 50.4261 52.6402C50.2975 52.7656 50.1273 52.827 49.9169 52.827Z" fill="#4D1299"/>
<path d="M13.4589 63.7509C13.6264 63.7509 13.7605 63.8017 13.861 63.9004C13.9642 63.9965 14.0164 64.1246 14.0164 64.2848V66.6283C14.0164 66.9633 13.9709 67.1995 13.8824 67.3383C13.7966 67.4771 13.6171 67.5892 13.3463 67.6746C13.0569 67.7787 12.7164 67.8587 12.3278 67.9148C11.9418 67.9709 11.5692 68.0002 11.2128 68.0002C10.4194 68.0002 9.72916 67.8454 9.14349 67.5358C8.56051 67.2235 8.11423 66.7711 7.8033 66.1799C7.49238 65.586 7.33691 64.8773 7.33691 64.0552C7.33691 63.2518 7.49238 62.5538 7.8033 61.9626C8.11423 61.3687 8.55381 60.9136 9.12205 60.596C9.69029 60.2797 10.3617 60.1209 11.1377 60.1209C12.167 60.1209 13.0099 60.3972 13.668 60.9483C13.7538 61.0311 13.8154 61.1125 13.8556 61.1939C13.8985 61.2726 13.9199 61.3647 13.9199 61.4715C13.9199 61.6316 13.8744 61.7678 13.7859 61.8772C13.7001 61.984 13.5943 62.0374 13.4696 62.0374C13.3865 62.0374 13.3142 62.0253 13.2498 62C13.1855 61.976 13.1078 61.9346 13.0193 61.8772C12.6977 61.6503 12.3975 61.4915 12.1187 61.4021C11.8426 61.31 11.5304 61.2633 11.1806 61.2633C10.3832 61.2633 9.78277 61.4982 9.37937 61.968C8.97463 62.4377 8.7736 63.1344 8.7736 64.0552C8.7736 65.945 9.60452 66.8899 11.2664 66.8899C11.7622 66.8899 12.2594 66.8205 12.7567 66.6817V64.7545H11.5183C11.3427 64.7545 11.2047 64.7118 11.1055 64.6264C11.009 64.5383 10.9608 64.4129 10.9608 64.2527C10.9608 64.0926 11.009 63.9698 11.1055 63.8844C11.2047 63.7963 11.3427 63.7509 11.5183 63.7509H13.4589Z" fill="#4D1299"/>
<path d="M21.7205 67.0235C21.8063 67.1516 21.8492 67.2784 21.8492 67.4025C21.8492 67.5707 21.7808 67.7095 21.6455 67.8189C21.5128 67.9257 21.356 67.9791 21.1737 67.9791C21.0558 67.9791 20.9432 67.9524 20.836 67.899C20.7315 67.8456 20.643 67.7642 20.568 67.6534L19.1152 65.454C18.9678 65.2192 18.8123 65.0563 18.6488 64.9629C18.484 64.8668 18.2709 64.8188 18.0109 64.8188H16.9387V67.2637C16.9387 67.4813 16.8757 67.6534 16.7511 67.7815C16.6251 67.9057 16.4576 67.9684 16.2472 67.9684C16.0354 67.9684 15.8666 67.9057 15.7379 67.7815C15.6093 67.6534 15.5449 67.4813 15.5449 67.2637V60.8845C15.5449 60.675 15.6052 60.5108 15.7272 60.3934C15.8478 60.2759 16.014 60.2172 16.2257 60.2172H18.9597C19.8349 60.2172 20.501 60.4134 20.9593 60.8044C21.4163 61.1928 21.6455 61.7533 21.6455 62.486C21.6455 63.0838 21.4753 63.5736 21.1362 63.954C20.7958 64.3357 20.316 64.5812 19.6942 64.6907C19.9046 64.7414 20.0909 64.8321 20.2517 64.9629C20.4125 65.091 20.5693 65.2725 20.7234 65.5074L21.7205 67.0235ZM18.7667 63.7405C19.2988 63.7405 19.6888 63.6417 19.9354 63.4415C20.182 63.2427 20.3053 62.9344 20.3053 62.518C20.3053 62.0989 20.182 61.792 19.9354 61.5998C19.6888 61.4076 19.2988 61.3115 18.7667 61.3115H16.9226V63.7405H18.7667Z" fill="#4D1299"/>
<path d="M26.533 68.0002C25.7824 68.0002 25.1311 67.8427 24.5816 67.5251C24.0308 67.2048 23.606 66.7484 23.3058 66.1532C23.0056 65.5553 22.8555 64.856 22.8555 64.0552C22.8555 63.2585 23.0029 62.5645 23.3004 61.9733C23.5966 61.3794 24.0214 60.9217 24.5763 60.6014C25.1298 60.2811 25.7824 60.1209 26.533 60.1209C27.2861 60.1209 27.9388 60.2811 28.4896 60.6014C29.0391 60.9217 29.4613 61.3794 29.7548 61.9733C30.051 62.5645 30.1997 63.2585 30.1997 64.0552C30.1997 64.856 30.0496 65.5553 29.7494 66.1532C29.4519 66.7484 29.0284 67.2048 28.4789 67.5251C27.9281 67.8427 27.2794 68.0002 26.533 68.0002ZM26.533 66.8792C27.2406 66.8792 27.7927 66.6363 28.1894 66.1478C28.5888 65.6607 28.7898 64.9627 28.7898 64.0552C28.7898 63.1477 28.5888 62.4524 28.1894 61.968C27.7927 61.4848 27.2406 61.2419 26.533 61.2419C25.8173 61.2419 25.2625 61.4848 24.8658 61.968C24.4691 62.4524 24.2707 63.1477 24.2707 64.0552C24.2707 64.9627 24.4691 65.6607 24.8658 66.1478C25.2625 66.6363 25.8173 66.8792 26.533 66.8792Z" fill="#4D1299"/>
<path d="M34.7516 67.9996C33.6928 67.9996 32.8914 67.7273 32.3446 67.1828C31.7978 66.6383 31.5244 65.8429 31.5244 64.7966V60.8623C31.5244 60.6528 31.5847 60.4833 31.7067 60.3551C31.8313 60.227 32.0015 60.163 32.216 60.163C32.4264 60.163 32.5925 60.227 32.7145 60.3551C32.8391 60.4833 32.9021 60.6528 32.9021 60.8623V64.8713C32.9021 65.5333 33.0589 66.0337 33.3739 66.3714C33.6875 66.7104 34.1472 66.8785 34.7516 66.8785C35.352 66.8785 35.8077 66.7077 36.1186 66.366C36.4322 66.0244 36.5903 65.5266 36.5903 64.8713V60.8623C36.5903 60.6528 36.652 60.4833 36.778 60.3551C36.9026 60.227 37.0701 60.163 37.2819 60.163C37.4923 60.163 37.6598 60.227 37.7858 60.3551C37.9104 60.4833 37.9734 60.6528 37.9734 60.8623V64.7966C37.9734 65.8362 37.6973 66.6303 37.1479 67.1775C36.6011 67.726 35.8023 67.9996 34.7516 67.9996Z" fill="#4D1299"/>
<path d="M40.2355 67.9684C40.0237 67.9684 39.8548 67.9057 39.7262 67.7815C39.5975 67.6534 39.5332 67.4813 39.5332 67.2637V60.8845C39.5332 60.675 39.5935 60.5108 39.7155 60.3934C39.8361 60.2759 40.0023 60.2172 40.214 60.2172H42.9051C43.7307 60.2172 44.3713 60.4241 44.8296 60.8364C45.2907 61.2461 45.5212 61.8213 45.5212 62.5607C45.5212 63.3054 45.2907 63.8833 44.8296 64.2956C44.3713 64.7094 43.7307 64.9149 42.9051 64.9149H40.9484V67.2637C40.9484 67.4813 40.8841 67.6534 40.7555 67.7815C40.6268 67.9057 40.4526 67.9684 40.2355 67.9684ZM42.7282 63.8365C43.6999 63.8365 44.1864 63.4148 44.1864 62.5714C44.1864 61.7319 43.6999 61.3115 42.7282 61.3115H40.9484V63.8365H42.7282Z" fill="#4D1299"/>
</svg>
