<svg width="40" height="40" viewBox="0 0 40 40" fill="none" xmlns="http://www.w3.org/2000/svg">
<path fill-rule="evenodd" clip-rule="evenodd" d="M20.6596 31.1271H20.6546C18.6642 31.1264 16.7085 30.627 14.9714 29.6796L8.66699 31.3333L10.3542 25.1707C9.31344 23.3671 8.76581 21.3212 8.7667 19.2252C8.76931 12.6681 14.1043 7.33334 20.6594 7.33334C23.8409 7.33472 26.8268 8.57323 29.0722 10.8212C31.3175 13.069 32.5534 16.057 32.5521 19.2346C32.5495 25.7902 27.2166 31.1244 20.6596 31.1271ZM15.2635 27.5266L15.6245 27.7408C17.1421 28.6414 18.8818 29.1179 20.6556 29.1186H20.6596C26.1077 29.1186 30.5419 24.6843 30.5441 19.2339C30.5451 16.5927 29.518 14.1092 27.6517 12.2408C25.7855 10.3724 23.3036 9.34295 20.6634 9.34204C15.2111 9.34204 10.7768 13.7759 10.7746 19.2259C10.7739 21.0936 11.2965 22.9126 12.2859 24.4864L12.521 24.8604L11.5224 28.508L15.2635 27.5266ZM26.244 21.7951C26.4513 21.8952 26.5912 21.9629 26.651 22.0626C26.7252 22.1865 26.7252 22.7815 26.4777 23.4757C26.23 24.1698 25.0429 24.8033 24.4719 24.8886C23.96 24.9652 23.3121 24.9971 22.6003 24.7709C22.1687 24.6339 21.6152 24.4511 20.9063 24.1449C18.1205 22.942 16.2378 20.242 15.882 19.7317C15.8571 19.696 15.8397 19.6709 15.83 19.658L15.8276 19.6548C15.6703 19.4449 14.6166 18.039 14.6166 16.584C14.6166 15.2152 15.289 14.4978 15.5984 14.1675C15.6197 14.1449 15.6392 14.1241 15.6566 14.105C15.929 13.8075 16.2509 13.7331 16.449 13.7331C16.6471 13.7331 16.8454 13.735 17.0186 13.7437C17.0399 13.7447 17.0621 13.7446 17.0851 13.7445C17.2583 13.7435 17.4742 13.7422 17.6871 14.2538C17.7691 14.4506 17.889 14.7425 18.0154 15.0504C18.2711 15.6729 18.5536 16.3607 18.6033 16.4602C18.6776 16.6089 18.7271 16.7824 18.6281 16.9808C18.6132 17.0106 18.5995 17.0386 18.5863 17.0655C18.5119 17.2173 18.4572 17.3291 18.331 17.4765C18.2813 17.5345 18.23 17.597 18.1787 17.6594C18.0764 17.7839 17.9742 17.9084 17.8852 17.9971C17.7364 18.1453 17.5816 18.3061 17.7549 18.6036C17.9283 18.9011 18.5246 19.8741 19.408 20.6621C20.3576 21.5091 21.183 21.8671 21.6013 22.0485C21.683 22.084 21.7492 22.1127 21.7977 22.137C22.0948 22.2858 22.2681 22.2609 22.4415 22.0626C22.6148 21.8643 23.1843 21.1949 23.3824 20.8974C23.5804 20.6001 23.7786 20.6496 24.0509 20.7487C24.3234 20.848 25.7843 21.5668 26.0815 21.7155C26.1395 21.7446 26.1937 21.7708 26.244 21.7951Z" fill="#4D1299"/>
</svg>
